# xmcd CD database file
#
# Track frame offsets:
#	150
#	16008
#	34027
#	49460
#	62407
#	75943
#	93670
#	112144
#	129254
#	145293
#	160878
#	174503
#	182946
#	195203
#	209225
#
# Disc length: 2883 seconds
#
# Revision: 0
# Processed by: cddbd v1.5.2PL0 Copyright (c) Steve Scherf et al.
# Submitted via: CDex 1.70beta2
#
DISCID=cb0b410f
DTITLE=Buckshot Dot - Buckaroo Bonanza!
DYEAR=2000
DGENRE=Country
TTITLE0=Old Hank Morgan's Place
TTITLE1=Headed For Montana
TTITLE2=Lonely Eyes
TTITLE3=Hello Baby
TTITLE4=Dark Eyed Stranger
TTITLE5=Buckaroo Waltz
TTITLE6=My Illogical Lover
TTITLE7=Old Girl Power
TTITLE8=Blow Western Winds
TTITLE9=Come Laugh With Me Tonight
TTITLE10=Boot Heels On My Heart
TTITLE11=A Girl Named Charlie
TTITLE12=Arizona Moon
TTITLE13=The Fiddler and the 1950's Truck
TTITLE14=A Cowpoke's Prayer
EXTD=YEAR: 2000
EXTT0=
EXTT1=
EXTT2=
EXTT3=
EXTT4=
EXTT5=
EXTT6=
EXTT7=
EXTT8=
EXTT9=
EXTT10=
EXTT11=
EXTT12=
EXTT13=
EXTT14=
PLAYORDER=
